<svg width="63" height="54" viewBox="0 0 63 54" fill="none" xmlns="http://www.w3.org/2000/svg">
<g clip-path="url(#clip0)">
<path d="M58.5362 4.35901C55.5588 1.453 51.4459 0 46.1953 0C44.7423 0 43.2597 0.252428 41.7476 0.756054C40.2354 1.25968 38.8292 1.93939 37.5288 2.79518C36.2273 3.65098 35.1092 4.45382 34.1709 5.20372C33.2338 5.95362 32.3423 6.75031 31.4988 7.59379C30.6553 6.75031 29.7638 5.95362 28.8267 5.20372C27.8884 4.45382 26.7703 3.65098 25.4687 2.79518C24.1683 1.93939 22.7609 1.25968 21.25 0.756054C19.7403 0.252428 18.2577 0 16.8047 0C11.5541 0 7.44125 1.453 4.46499 4.35901C1.48874 7.26625 0 11.2965 0 16.4534C0 18.0234 0.27583 19.6414 0.826258 21.305C1.37669 22.9685 2.00469 24.3871 2.70658 25.5593C3.4097 26.7303 4.2064 27.873 5.09669 28.9862C5.98698 30.0993 6.63838 30.8665 7.04843 31.2888C7.45849 31.7112 7.78111 32.0153 8.01507 32.2037L29.9522 53.3683C30.3745 53.7907 30.8892 54.0012 31.4988 54.0012C32.1083 54.0012 32.6243 53.7894 33.0454 53.3683L54.948 32.2739C60.3156 26.9076 62.9988 21.6337 62.9988 16.4546C63.0012 11.2953 61.5125 7.26502 58.5362 4.35901ZM51.8905 28.9677L31.5 48.6202L11.0751 28.932C6.69257 24.5508 4.5007 20.3901 4.5007 16.4522C4.5007 14.5547 4.75314 12.8775 5.25677 11.4258C5.76041 9.97277 6.40565 8.81776 7.19004 7.9632C7.97567 7.1074 8.92999 6.41045 10.0555 5.87112C11.181 5.33178 12.283 4.96853 13.3605 4.78137C14.438 4.5942 15.5868 4.50062 16.8059 4.50062C18.025 4.50062 19.3376 4.7986 20.7439 5.39704C22.1501 5.99425 23.4443 6.74415 24.6277 7.64674C25.811 8.54932 26.8257 9.3928 27.6692 10.1784C28.5127 10.964 29.2158 11.6844 29.7785 12.3407C30.1997 12.8566 30.7747 13.114 31.5012 13.114C32.2277 13.114 32.8016 12.8566 33.2239 12.3407C33.7867 11.6844 34.4898 10.964 35.3333 10.1784C36.1768 9.39404 37.1902 8.55055 38.3736 7.64674C39.5569 6.74415 40.8524 5.99425 42.2586 5.39704C43.6648 4.79984 44.9775 4.50062 46.1966 4.50062C47.4156 4.50062 48.5633 4.5942 49.642 4.78137C50.7207 4.96853 51.8215 5.33178 52.947 5.87112C54.0725 6.41045 55.0268 7.1074 55.8124 7.9632C56.598 8.81899 57.2421 9.97277 57.7457 11.4258C58.2493 12.8788 58.5005 14.5547 58.5005 16.4522C58.5005 20.3901 56.2976 24.5619 51.8905 28.9677Z" fill="black"/>
</g>
<defs>
<clipPath id="clip0">
<rect width="63" height="54" fill="white"/>
</clipPath>
</defs>
</svg>
