<svg width="68" height="81" viewBox="0 0 68 81" fill="none" xmlns="http://www.w3.org/2000/svg">
<path d="M64.44 24.1611H3.56C1.59 24.1611 0 25.7511 0 27.7211V35.6411C0 36.4811 0.68 37.1611 1.52 37.1611H66.48C67.32 37.1611 68 36.4811 68 35.6411V27.7211C68 25.7511 66.41 24.1611 64.44 24.1611ZM36.75 80.1611H60.17C62.29 80.1611 64 78.4411 64 76.3311V40.1611H36.75V80.1611ZM4 76.3311C4 78.4511 5.72 80.1611 7.83 80.1611H31.25V40.1611H4V76.3311ZM14.78 20.5311C18.93 22.3311 49.33 22.3311 53.48 20.5311C58.9 18.1711 61.39 11.8611 59.03 6.44114C56.67 1.02114 50.36 -1.46886 44.94 0.891145C42.01 2.16114 37.39 5.70114 34.13 9.54114C30.87 5.70114 26.25 2.16114 23.32 0.891145C17.89 -1.46886 11.59 1.02114 9.23 6.44114C6.87 11.8711 9.36 18.1811 14.78 20.5311ZM46.53 5.02114C49.62 3.83114 53.18 5.58114 54.47 8.93114C55.76 12.2811 54.3 15.9611 51.21 17.1511C48.12 18.3411 38.97 18.7511 37.67 15.4011C36.38 12.0511 43.43 6.21114 46.53 5.02114ZM14.35 8.35114C15.86 5.10114 19.53 3.60114 22.53 5.00114C25.53 6.40114 32.17 12.7211 30.65 15.9711C29.13 19.2211 20.03 18.1811 17.03 16.7811C14.03 15.3811 12.83 11.6011 14.35 8.35114Z" fill="black"/>
</svg>
